<svg width="32" height="32" viewBox="0 0 32 32" fill="none" xmlns="http://www.w3.org/2000/svg">
<path fill-rule="evenodd" clip-rule="evenodd" d="M19.9812 19.9812C23.8055 16.157 23.8055 9.95665 19.9812 6.13239C16.157 2.30814 9.95665 2.30814 6.13239 6.13239C2.30814 9.95665 2.30814 16.157 6.13239 19.9812C9.95665 23.8055 16.157 23.8055 19.9812 19.9812ZM22.2894 22.2894C27.3884 17.1904 27.3884 8.92326 22.2894 3.82425C17.1904 -1.27475 8.92326 -1.27475 3.82425 3.82425C-1.27475 8.92326 -1.27475 17.1904 3.82425 22.2894C8.92326 27.3884 17.1904 27.3884 22.2894 22.2894Z" fill="white"/>
<path fill-rule="evenodd" clip-rule="evenodd" d="M20.5583 20.5583C21.1957 19.9209 22.2291 19.9209 22.8664 20.5583L31.522 29.2138C32.1593 29.8512 32.1593 30.8846 31.522 31.5219C30.8846 32.1593 29.8512 32.1593 29.2138 31.5219L20.5583 22.8664C19.9209 22.229 19.9209 21.1956 20.5583 20.5583Z" fill="white"/>
</svg>
